<svg width="40" height="40" viewBox="0 0 40 40" fill="none" xmlns="http://www.w3.org/2000/svg">
<circle cx="20" cy="20" r="20" fill="#1F3F68"/>
<path d="M23.1875 20L27.875 24.6875C28.1562 24.9688 28.2969 25.3125 28.2969 25.7188C28.2969 26.125 28.1562 26.4844 27.875 26.7969L26.8438 27.8281C26.5312 28.1094 26.1719 28.25 25.7656 28.25C25.3594 28.25 25.0156 28.1094 24.7344 27.8281L20.0469 23.1406L15.3594 27.8281C15.0781 28.1094 14.7344 28.25 14.3281 28.25C13.9219 28.25 13.5625 28.1094 13.25 27.8281L12.2188 26.7969C11.9375 26.4844 11.7969 26.125 11.7969 25.7188C11.7969 25.3125 11.9375 24.9688 12.2188 24.6875L16.9062 20L12.2188 15.3125C11.9375 15.0312 11.7969 14.6875 11.7969 14.2812C11.7969 13.875 11.9375 13.5156 12.2188 13.2031L13.25 12.1719C13.5625 11.8906 13.9219 11.75 14.3281 11.75C14.7344 11.75 15.0781 11.8906 15.3594 12.1719L20.0469 16.8594L24.7344 12.1719C25.0156 11.8906 25.3594 11.75 25.7656 11.75C26.1719 11.75 26.5312 11.8906 26.8438 12.1719L27.875 13.2031C28.1562 13.5156 28.2969 13.875 28.2969 14.2812C28.2969 14.6875 28.1562 15.0312 27.875 15.3125L23.1875 20Z" fill="white"/>
</svg>
