 <svg width="40" height="40" viewBox="0 0 40 40" fill="none" xmlns="http://www.w3.org/2000/svg">
<circle cx="20" cy="20" r="20" fill="#1F3F68"/>
<path d="M10.25 14.1875C10.0312 14.1875 9.84375 14.125 9.6875 14C9.5625 13.8438 9.5 13.6562 9.5 13.4375V11.5625C9.5 11.3438 9.5625 11.1719 9.6875 11.0469C9.84375 10.8906 10.0312 10.8125 10.25 10.8125H29.75C29.9688 10.8125 30.1406 10.8906 30.2656 11.0469C30.4219 11.1719 30.5 11.3438 30.5 11.5625V13.4375C30.5 13.6562 30.4219 13.8438 30.2656 14C30.1406 14.125 29.9688 14.1875 29.75 14.1875H10.25ZM10.25 21.6875C10.0312 21.6875 9.84375 21.625 9.6875 21.5C9.5625 21.3438 9.5 21.1562 9.5 20.9375V19.0625C9.5 18.8438 9.5625 18.6719 9.6875 18.5469C9.84375 18.3906 10.0312 18.3125 10.25 18.3125H29.75C29.9688 18.3125 30.1406 18.3906 30.2656 18.5469C30.4219 18.6719 30.5 18.8438 30.5 19.0625V20.9375C30.5 21.1562 30.4219 21.3438 30.2656 21.5C30.1406 21.625 29.9688 21.6875 29.75 21.6875H10.25ZM10.25 29.1875C10.0312 29.1875 9.84375 29.125 9.6875 29C9.5625 28.8438 9.5 28.6562 9.5 28.4375V26.5625C9.5 26.3438 9.5625 26.1719 9.6875 26.0469C9.84375 25.8906 10.0312 25.8125 10.25 25.8125H29.75C29.9688 25.8125 30.1406 25.8906 30.2656 26.0469C30.4219 26.1719 30.5 26.3438 30.5 26.5625V28.4375C30.5 28.6562 30.4219 28.8438 30.2656 29C30.1406 29.125 29.9688 29.1875 29.75 29.1875H10.25Z" fill="white"/>
</svg>
